<svg width="0" height="0" class="hidden">
  <symbol version="1.0" xmlns="http://www.w3.org/2000/svg" preserveAspectRatio="xMidYMid meet" viewBox="0 0 1280.000000 1170.000000" id="magnifier">
    <g transform="translate(0.000000,1170.000000) scale(0.100000,-0.100000)" stroke="none">
      <path d="M4330 11679 c-808 -69 -1468 -267 -2114 -636 -865 -494 -1561 -1279
-1914 -2158 -167 -418 -245 -762 -288 -1282 -17 -203 -17 -222 0 -420 26 -309
53 -492 106 -718 161 -680 524 -1344 1024 -1875 1068 -1133 2639 -1668 4241
-1444 1245 174 2381 832 3116 1806 446 590 711 1245 806 1993 25 194 25 711 0
900 -67 503 -188 908 -401 1335 -522 1046 -1485 1863 -2658 2254 -421 141
-777 209 -1315 251 -235 18 -328 18 -603 -6z m768 -1273 c679 -89 1280 -347
1782 -765 104 -86 298 -279 384 -381 306 -362 515 -765 621 -1200 59 -239 79
-409 78 -670 -1 -460 -92 -844 -299 -1260 -450 -903 -1364 -1557 -2416 -1729
-208 -34 -344 -44 -578 -44 -234 0 -370 10 -578 44 -971 159 -1834 734 -2314
1541 -267 451 -399 929 -400 1448 0 214 10 326 48 528 141 754 608 1448 1289
1914 461 316 1023 523 1570 577 61 6 126 13 145 15 85 10 552 -3 668 -18z"></path>
      <path d="M8859 4528 c-256 -341 -652 -705 -1000 -919 -54 -34 -101 -64 -104
-68 -2 -4 373 -352 833 -772 460 -420 1327 -1212 1926 -1759 599 -547 1093
-995 1098 -995 4 0 272 240 594 534 l585 535 -43 42 c-83 83 -3813 3484 -3820
3484 -4 0 -35 -37 -69 -82z"></path>
    </g>
  </symbol>
  <symbol version="1.0" xmlns="http://www.w3.org/2000/svg" preserveAspectRatio="xMidYMid meet" viewBox="0 0 1280.000000 1280.000000" id="clear">
    <g transform="translate(0.000000,1280.000000) scale(0.100000,-0.100000)" stroke="none">
      <path d="M1595 12788 c-173 -43 -252 -77 -350 -151 -33 -25 -292 -279 -575
-564 -368 -370 -525 -534 -549 -575 -64 -110 -106 -241 -118 -369 -6 -61 24
-214 59 -304 52 -133 9 -88 2209 -2290 1166 -1166 2119 -2127 2119 -2135 0 -8
-951 -967 -2114 -2130 -1162 -1163 -2128 -2137 -2145 -2163 -75 -111 -137
-321 -128 -432 11 -127 53 -260 118 -373 48 -81 1100 -1133 1181 -1181 109
-63 241 -105 369 -118 106 -10 308 48 428 124 38 23 751 729 2171 2149 1163
1163 2122 2114 2130 2114 8 0 967 -951 2130 -2114 1420 -1420 2133 -2126 2171
-2149 120 -76 322 -134 428 -124 128 13 260 55 369 118 81 48 1133 1100 1181
1181 48 83 77 160 100 268 27 120 26 148 -3 273 -28 117 -50 173 -101 254 -26
40 -680 702 -2151 2173 -1163 1163 -2114 2122 -2114 2130 0 8 951 967 2114
2130 1418 1419 2126 2133 2149 2171 76 119 134 321 124 428 -12 127 -54 258
-118 369 -48 81 -1100 1133 -1181 1181 -113 65 -246 107 -373 118 -111 9 -321
-53 -432 -128 -26 -17 -1000 -983 -2163 -2145 -1163 -1163 -2122 -2114 -2130
-2114 -8 0 -967 951 -2130 2114 -1471 1471 -2133 2125 -2173 2151 -81 51 -137
73 -254 101 -107 25 -180 28 -248 12z"></path>
    </g>
  </symbol>
</svg>